<svg xmlns="http://www.w3.org/2000/svg" viewBox="0 0 1890 512" role="img" aria-labelledby="title">
  <title id="title">QTMA</title>
  <g fill="#3678dc">
    <path d="M255 6C114 6 0 120 0 256s114 256 255 256c53 0 103-16 144-44 34 29 68 44 110 44h8v-44h-8c-31 0-52-7-77-25 49-47 79-113 79-187C511 120 396 6 255 6Zm0 50c113 0 205 90 205 200 0 61-28 116-72 153-65-61-145-97-238-102-33-2-64 3-93 12-5-20-7-41-7-63C50 146 142 56 255 56Zm0 406c-78 0-146-49-181-98 24-8 50-12 78-10 78 4 145 34 200 84-29 15-62 24-97 24Z"/>
    <path d="M532 23h304v44H710v437h-50V67H532V23Z"/>
    <path d="M912 23h76l160 319 160-319h76v481h-50V75l-166 339h-40L962 75v429h-50V23Z"/>
    <path d="M1454 504h-55l260-481h54l260 481h-56l-86-160h-291l-86 160Zm110-204h243L1685 75l-121 225Z"/>
  </g>
</svg>
